<svg width="26" height="26" viewBox="0 0 26 26" fill="none" xmlns="http://www.w3.org/2000/svg">
<path d="M1.93934 22.1522L0.87868 23.2129L3 25.3342L4.06066 24.2736L1.93934 22.1522ZM25.7132 1.99969C25.7132 1.17126 25.0416 0.499687 24.2132 0.499687L10.7132 0.499686C9.88478 0.499686 9.2132 1.17126 9.2132 1.99969C9.2132 2.82811 9.88478 3.49969 10.7132 3.49969H22.7132V15.4997C22.7132 16.3281 23.3848 16.9997 24.2132 16.9997C25.0416 16.9997 25.7132 16.3281 25.7132 15.4997L25.7132 1.99969ZM4.06066 24.2736L25.2739 3.06035L23.1525 0.939026L1.93934 22.1522L4.06066 24.2736Z" fill="#292929"/>
</svg>
