<svg width="263" height="40" viewBox="0 0 263 40" fill="none" xmlns="http://www.w3.org/2000/svg">
<path fill-rule="evenodd" clip-rule="evenodd" d="M17.9434 0.000414541C17.8326 0.112467 17.878 40.0393 17.9889 40C18.0468 39.9795 21.5508 38.0021 25.7755 35.6058L33.457 31.2488L33.4615 24.6295L33.4659 18.0102H29.819H26.1721V19.7977V21.5852H27.9955H29.819V25.2023V28.8195L25.6471 31.0051L21.4753 33.1909L21.4468 26.4384C21.4311 22.7246 21.4311 16.6488 21.4468 12.9367L21.4753 6.18735L25.6748 8.45454L29.8742 10.7217L29.9043 12.8578L29.9342 14.9938H31.7554H33.5764V11.8894V8.78489L25.7898 4.36244C21.5071 1.93012 17.9762 -0.0327656 17.9434 0.000414541ZM13.7947 1.02051L12.1923 1.90364L12.2322 17.5705L12.2719 33.2374L11.9006 33.0128C11.6963 32.8894 9.77645 31.8457 7.63417 30.6937L3.73916 28.5989L3.71098 17.6809L3.6828 6.76291L1.85935 7.79809L0.0358952 8.83327L0.00771398 19.999C-0.0146095 28.8477 0.00837705 31.1879 0.118226 31.2767C0.290847 31.416 15.1436 39.7681 15.3864 39.8623C15.5476 39.9249 15.5629 38.2132 15.5629 20.0331C15.5629 9.08934 15.5256 0.135814 15.48 0.136373C15.4344 0.13682 14.676 0.534759 13.7947 1.02051ZM245.566 17.9132L245.594 28.1207H247.473H249.352L249.407 22.172L249.462 16.2234L255.817 22.2653C259.312 25.5884 262.358 28.4891 262.586 28.7114L263 29.1156V18.9266V8.73764H261.067H259.134L259.105 14.6615L259.077 20.5853L253.606 15.3767C250.598 12.5119 247.551 9.61407 246.837 8.93695L245.538 7.70593L245.566 17.9132ZM86.9539 18.0102V28.1765H88.8316H90.7094L90.7379 22.173L90.7665 16.1696L97.5361 22.6199C101.259 26.1676 104.33 29.0703 104.36 29.0703C104.39 29.0703 104.415 24.4954 104.415 18.904V8.73764H102.482H100.549L100.52 14.6944L100.492 20.6512L93.7682 14.2476C90.0702 10.7255 87.0243 7.8439 86.9993 7.8439C86.9743 7.8439 86.9539 12.4187 86.9539 18.0102ZM51.6452 8.41187C49.9249 8.61665 47.8312 9.45353 46.622 10.4198C44.4661 12.1426 43.2743 14.3788 42.9651 17.2814C42.7432 19.3652 43.0619 21.2238 43.9618 23.0934C45.1919 25.6489 47.3102 27.3569 50.2227 28.1411C51.1852 28.4003 51.5284 28.4356 53.1371 28.4402C54.5152 28.4441 55.1495 28.3977 55.7341 28.2506C56.6083 28.0306 58.0437 27.3604 58.7456 26.8445L59.2153 26.4993V24.2564V22.0133L58.5621 22.6092C57.2755 23.783 55.9175 24.4097 54.245 24.6012C52.7559 24.7717 51.6478 24.5812 50.388 23.9383C49.0381 23.2493 47.933 21.9145 47.4724 20.4168C47.1308 19.306 47.1321 17.4926 47.4751 16.3769C48.0695 14.4434 49.6883 12.9084 51.7054 12.3657C52.4845 12.1561 54.3235 12.1578 55.209 12.3688C56.1909 12.6029 57.4821 13.2962 58.414 14.0897L59.2153 14.772V12.5422V10.3124L58.7301 9.97503C58.0342 9.49096 56.8272 8.89863 56.1209 8.69452C54.8916 8.33937 53.1687 8.23044 51.6452 8.41187ZM71.8689 8.35646C69.2013 8.73798 67.4457 9.51688 65.8599 11.0225C63.7984 12.9799 62.831 15.3532 62.8293 18.4571C62.8278 21.367 63.6782 23.6185 65.5031 25.5358C66.8252 26.9246 68.2793 27.7901 70.1634 28.3097C70.9738 28.5331 71.3403 28.5655 72.974 28.5579C75.2254 28.5475 76.0312 28.3696 77.7261 27.5081C81.2598 25.7122 83.3022 21.9598 83.0479 17.7309C82.7706 13.1208 79.7061 9.49475 75.3116 8.5771C74.45 8.39723 72.4708 8.27033 71.8689 8.35646ZM114.527 8.40629C111.922 8.81093 110.049 10.3266 109.56 12.4259C109.114 14.3393 109.598 16.0997 110.942 17.4487C111.873 18.3826 112.289 18.6095 115.765 20.0744C117.766 20.9181 118.442 21.613 118.447 22.8348C118.452 23.7602 118.059 24.3876 117.179 24.8589C116.831 25.0454 116.536 25.0966 115.792 25.0999C114.914 25.104 114.785 25.0736 113.989 24.6757C113.009 24.1862 112.175 23.3985 111.471 22.299C111.201 21.876 110.967 21.6196 110.893 21.6639C110.558 21.8654 108.273 23.521 108.227 23.5963C108.148 23.7263 109.21 25.3208 109.805 25.964C112.262 28.6214 116.214 29.3747 119.389 27.7908C121.395 26.7905 122.546 24.9917 122.574 22.8141C122.596 21.1388 122.171 19.9881 121.122 18.8755C120.279 17.9822 119.221 17.3449 117.473 16.6762C115.988 16.1083 114.731 15.4941 114.286 15.118C113.193 14.1958 113.217 12.7718 114.339 12.0668C114.686 11.8483 114.897 11.8099 115.742 11.8099C116.665 11.8099 116.787 11.8374 117.435 12.1927C118.107 12.5608 118.821 13.2522 119.201 13.9027C119.3 14.0727 119.421 14.2118 119.469 14.2118C119.562 14.2118 122.317 12.6766 122.454 12.5483C122.589 12.4229 121.649 11.0735 120.921 10.3477C120.15 9.57831 118.886 8.85629 117.824 8.57923C116.964 8.35479 115.39 8.27223 114.527 8.40629ZM186.802 8.40449C184.941 8.64368 182.966 9.46559 181.591 10.5729C178.092 13.3916 177.026 18.7778 179.115 23.0934C180.355 25.6539 182.469 27.3573 185.379 28.1411C186.342 28.4003 186.685 28.4356 188.294 28.4402C189.672 28.4441 190.306 28.3977 190.891 28.2506C191.775 28.0282 193.212 27.3522 193.902 26.8339L194.372 26.4814V24.2474V22.0133L193.719 22.6092C192.432 23.783 191.074 24.4097 189.402 24.6012C187.859 24.778 186.751 24.5745 185.427 23.8713C183.97 23.0972 182.85 21.5632 182.493 19.8536C181.774 16.4048 183.622 13.2374 186.862 12.3657C187.646 12.1547 189.482 12.1582 190.381 12.3724C191.338 12.6004 192.65 13.3105 193.592 14.11L194.372 14.772V12.5557V10.3396L193.882 9.98396C193.119 9.43018 191.632 8.75372 190.78 8.57319C189.783 8.36193 187.79 8.27736 186.802 8.40449ZM230.133 8.41064C225.984 8.98878 223.023 11.5152 221.82 15.5054C221.546 16.4134 221.519 16.6658 221.514 18.3454C221.508 20.7993 221.834 22.0954 222.93 23.9826C223.514 24.989 225.043 26.534 226.038 27.1248C228.18 28.3964 230.906 28.9102 233.368 28.5063C237.542 27.8216 240.645 24.8174 241.504 20.6287C241.743 19.465 241.743 17.339 241.505 16.1772C240.81 12.7915 238.455 10.0611 235.262 8.94007C233.805 8.42852 231.622 8.20318 230.133 8.41064ZM124.639 10.5251V12.3126H127.236H129.833V20.2471V28.1817L131.794 28.1512L133.756 28.1207L133.784 20.2166L133.813 12.3126H136.409H139.005V10.5251V8.73764H131.822H124.639V10.5251ZM141.989 18.4597V28.1817L143.951 28.1512L145.912 28.1207L145.941 24.6248L145.971 21.1289L146.819 21.1616L147.667 21.1942L149.774 24.501C150.932 26.3198 151.948 27.8909 152.031 27.9922C152.163 28.1525 152.478 28.1765 154.447 28.1765C156.236 28.1765 156.699 28.1467 156.657 28.0342C156.627 27.9559 155.476 26.2656 154.098 24.278C152.721 22.2905 151.608 20.6526 151.626 20.6384C151.644 20.6241 152.007 20.4418 152.431 20.233C154.505 19.2148 155.686 17.0584 155.547 14.547C155.379 11.5397 153.604 9.56881 150.475 8.91538C149.793 8.77294 148.866 8.73764 145.806 8.73764H141.989V18.4597ZM159.671 15.8138C159.671 22.495 159.683 22.9382 159.889 23.753C160.49 26.1273 162.155 27.78 164.644 28.4735C165.65 28.7538 168.274 28.7571 169.286 28.4795C171.273 27.9339 172.807 26.7382 173.602 25.1163C174.34 23.6118 174.361 23.3487 174.365 15.5804L174.369 8.73764H172.384H170.399L170.367 15.7035L170.335 22.6694L169.948 23.4399C169.65 24.0316 169.438 24.2931 169.035 24.5659C167.772 25.4208 165.648 25.2876 164.606 24.2883C164.433 24.1226 164.16 23.7358 163.998 23.4285L163.705 22.8699L163.674 15.8038L163.643 8.73764H161.657H159.671V15.8138ZM196.251 10.5251V12.3126H198.848H201.445V20.2471V28.1817L203.406 28.1512L205.368 28.1207L205.396 20.2166L205.425 12.3126H208.021H210.617V10.5251V8.73764H203.434H196.251V10.5251ZM213.601 18.4571V28.1765H215.59H217.579V18.4571V8.73764H215.59H213.601V18.4571ZM74.562 12.2515C76.4957 12.7718 77.9505 14.228 78.5852 16.2786C78.7778 16.901 78.8272 17.3343 78.8272 18.4012C78.8272 19.4681 78.7778 19.9015 78.5852 20.5239C78.3154 21.3955 77.7281 22.4512 77.194 23.0242C76.6606 23.5966 75.6165 24.2426 74.8055 24.502C73.7883 24.8275 72.0455 24.8262 71.0235 24.4993C69.2276 23.925 67.8727 22.4957 67.2552 20.5239C66.8948 19.3726 66.9025 17.3831 67.2719 16.2419C67.9131 14.2612 69.412 12.7719 71.2735 12.2658C72.0464 12.0557 73.8057 12.048 74.562 12.2515ZM148.937 12.2064C150.606 12.4801 151.485 13.4431 151.491 15.0018C151.495 16.4056 150.637 17.4828 149.279 17.7772C148.971 17.8439 148.1 17.8985 147.343 17.8985H145.967V14.9938V12.0892L147.1 12.0901C147.723 12.0905 148.55 12.1428 148.937 12.2064ZM233.212 12.2602C234.715 12.6559 236.014 13.6974 236.735 15.0856C237.261 16.0964 237.468 17.0357 237.468 18.4012C237.468 19.7611 237.261 20.7059 236.743 21.701C236.057 23.0222 234.893 24.0222 233.493 24.4943C232.64 24.7822 231.017 24.8349 230.067 24.6058C228.034 24.115 226.369 22.3871 225.815 20.1932C225.6 19.3412 225.601 17.605 225.818 16.6755C226.318 14.5326 227.913 12.8154 229.922 12.257C230.665 12.0504 232.422 12.0522 233.212 12.2602Z" fill="#CECECE"/>
</svg>
