<svg width="50" height="50" viewBox="0 0 50 50" fill="none" xmlns="http://www.w3.org/2000/svg">
<circle cx="25" cy="25" r="25" fill="#292929"/>
<path fill-rule="evenodd" clip-rule="evenodd" d="M35.1721 17.054C35.0622 17.092 34.8897 17.1877 34.7886 17.2668C34.6875 17.3458 31.9939 20.1173 28.8029 23.4256C25.6118 26.7339 22.9827 29.4407 22.9604 29.4407C22.938 29.4407 21.6457 28.1211 20.0885 26.5083C18.1421 24.4925 17.1871 23.5373 17.0328 23.4523C16.6928 23.2649 16.1653 23.2481 15.8223 23.4139C15.5085 23.5656 15.2389 23.842 15.1061 24.148C14.9606 24.4833 14.9654 25.0463 15.1164 25.3703C15.203 25.5558 16.0072 26.4192 18.6418 29.1548C22.4598 33.1192 22.3257 32.9996 22.9533 32.9996C23.2502 32.9996 23.3583 32.9757 23.5739 32.8621C23.7881 32.7492 24.9907 31.5267 30.2681 26.0575C35.5443 20.5893 36.7261 19.3406 36.8398 19.1136C37.3089 18.177 36.6952 17.0594 35.6804 17.0025C35.5013 16.9924 35.288 17.014 35.1721 17.054Z" fill="white"/>
</svg>
