<svg width="34" height="34" viewBox="0 0 34 34" fill="none" xmlns="http://www.w3.org/2000/svg">
<path fill-rule="evenodd" clip-rule="evenodd" d="M16.1435 0.0979358C15.9455 0.151212 15.6219 0.293503 15.4244 0.414271C15.1831 0.561811 12.6939 3.00421 7.82864 7.86709C0.11053 15.5814 0.322908 15.3517 0.0921894 16.2372C-0.183517 17.2955 0.170403 18.4571 1.00363 19.2283C1.63944 19.8166 2.40157 20.1173 3.26317 20.1195L3.64527 20.1205L3.6464 25.3518C3.64773 31.146 3.64401 31.0886 4.07614 31.9983C4.5405 32.9759 5.51454 33.6905 6.68016 33.9089C7.12725 33.9927 7.7378 34.0072 10.1356 33.9908C13.3707 33.9688 13.3491 33.9717 13.5952 33.5214C13.7031 33.3241 13.7154 32.9509 13.7459 28.9223L13.7791 24.538L13.9633 24.1887C14.187 23.7642 14.5643 23.476 15.03 23.3738C15.2561 23.3242 16.0112 23.3059 17.2345 23.3203L19.0952 23.3423L19.4558 23.5416C19.8752 23.7733 20.1474 24.1504 20.254 24.6475C20.2995 24.8595 20.3245 26.4401 20.3245 29.0943C20.3245 33.1233 20.3275 33.2181 20.4616 33.481C20.5627 33.6791 20.6772 33.7844 20.8981 33.882C21.1863 34.0095 21.3136 34.0133 24.3327 33.9869C27.0055 33.9635 27.5151 33.9435 27.7868 33.8512C29.0028 33.4382 29.8798 32.5513 30.2628 31.347C30.3684 31.0149 30.3817 30.4869 30.4088 25.5511L30.4385 20.1205L30.7142 20.12C31.2038 20.1191 31.8248 19.987 32.2538 19.7926C33.7836 19.0992 34.4251 17.2371 33.7049 15.5811C33.5383 15.1983 33.0499 14.6941 26.2469 7.88257C20.3682 1.99661 18.895 0.555301 18.593 0.394343C17.8786 0.0137037 16.8983 -0.104872 16.1435 0.0979358Z" fill="white"/>
</svg>
