<svg width="30" height="30" viewBox="0 0 30 30" fill="none" xmlns="http://www.w3.org/2000/svg">
<path d="M15.0071 7.29639C10.7533 7.29639 7.30958 10.7439 7.30958 14.9939C7.30958 19.2476 10.7571 22.6914 15.0071 22.6914C19.2609 22.6914 22.7046 19.2439 22.7046 14.9939C22.7046 10.7401 19.2571 7.29639 15.0071 7.29639ZM15.0071 19.9901C12.2458 19.9901 10.0108 17.7539 10.0108 14.9939C10.0108 12.2339 12.2471 9.99764 15.0071 9.99764C17.7671 9.99764 20.0034 12.2339 20.0034 14.9939C20.0046 17.7539 17.7684 19.9901 15.0071 19.9901Z" fill="#CECECE"/>
<path d="M21.1852 0.0942333C18.4252 -0.0345167 11.589 -0.0282667 8.82654 0.0942333C6.39904 0.207983 4.25779 0.794233 2.53154 2.52048C-0.353466 5.40548 0.0152841 9.29298 0.0152841 14.9943C0.0152841 20.8293 -0.309716 24.6268 2.53154 27.468C5.42779 30.363 9.37154 29.9843 15.0052 29.9843C20.7852 29.9843 22.7802 29.988 24.824 29.1968C27.6027 28.118 29.7003 25.6343 29.9053 21.173C30.0352 18.4118 30.0278 11.5767 29.9053 8.81423C29.6578 3.54798 26.8315 0.354233 21.1852 0.0942333ZM25.554 25.5593C23.6627 27.4505 21.039 27.2818 14.969 27.2818C8.71904 27.2818 6.21279 27.3743 4.38404 25.5405C2.27779 23.4443 2.65904 20.078 2.65904 14.9743C2.65904 8.06798 1.95029 3.09423 8.88154 2.73923C10.474 2.68298 10.9428 2.66423 14.9515 2.66423L15.0077 2.70173C21.669 2.70173 26.8953 2.00423 27.209 8.93423C27.2803 10.5155 27.2965 10.9905 27.2965 14.993C27.2952 21.1705 27.4127 23.6918 25.554 25.5593Z" fill="#CECECE"/>
<path d="M23.0047 8.79182C23.9982 8.79182 24.8035 7.9865 24.8035 6.99309C24.8035 5.99966 23.9982 5.19434 23.0047 5.19434C22.0114 5.19434 21.206 5.99966 21.206 6.99309C21.206 7.9865 22.0114 8.79182 23.0047 8.79182Z" fill="#CECECE"/>
</svg>
