<svg width="30" height="22" viewBox="0 0 30 22" fill="none" xmlns="http://www.w3.org/2000/svg">
<path d="M29.3366 3.03627L29.3741 3.28127C29.0116 1.99502 28.0329 1.00252 26.7891 0.641268L26.7629 0.635017C24.4241 1.74642e-05 15.0129 1.72738e-05 15.0129 1.72738e-05C15.0129 1.72738e-05 5.62536 -0.0124826 3.26286 0.635017C1.99536 1.00252 1.01537 1.99502 0.659118 3.25502L0.652868 3.28127C-0.220882 7.84502 -0.227132 13.3288 0.691618 18.215L0.652868 17.9675C1.01537 19.2538 1.99411 20.2463 3.23786 20.6075L3.26411 20.6138C5.60036 21.25 15.0141 21.25 15.0141 21.25C15.0141 21.25 24.4004 21.25 26.7641 20.6138C28.0329 20.2463 29.0129 19.2538 29.3691 17.9938L29.3754 17.9675C29.7729 15.845 30.0004 13.4025 30.0004 10.9075C30.0004 10.8163 30.0004 10.7238 29.9991 10.6313C30.0004 10.5463 30.0004 10.445 30.0004 10.3438C30.0004 7.84752 29.7729 5.40502 29.3366 3.03627ZM12.0104 15.1888V6.07252L19.8429 10.6375L12.0104 15.1888Z" fill="#CECECE"/>
</svg>
